<?xml version="1.0" standalone="no"?>
<!DOCTYPE svg PUBLIC "-//W3C//DTD SVG 20010904//EN"
 "http://www.w3.org/TR/2001/REC-SVG-20010904/DTD/svg10.dtd">
<svg version="1.0" xmlns="http://www.w3.org/2000/svg"
 width="408.000000pt" height="66.000000pt" viewBox="0 0 408.000000 66.000000"
 preserveAspectRatio="xMidYMid meet">

<g transform="translate(0.000000,66.000000) scale(0.100000,-0.100000)"
fill="#000000" stroke="none">
<path d="M65 646 c-52 -24 -59 -46 -63 -224 -2 -89 -1 -197 3 -239 7 -72 9
-79 50 -122 l44 -46 88 -3 c56 -3 112 2 156 12 61 14 71 14 90 1 16 -11 48
-15 120 -15 95 0 99 1 127 29 26 25 31 27 42 13 28 -33 75 -42 219 -42 l141 0
27 29 28 30 27 -27 c26 -27 28 -27 186 -30 l160 -3 26 26 26 26 23 -26 c21
-22 32 -25 95 -25 63 0 74 3 95 26 19 20 25 22 32 11 23 -40 133 -52 173 -19
23 18 24 18 42 0 14 -14 34 -18 94 -18 82 0 111 10 123 42 7 20 9 20 40 -11
l32 -31 139 0 c160 0 186 7 197 50 l8 31 39 -38 38 -38 132 0 c87 0 138 4 147
12 11 9 19 8 33 -3 29 -21 159 -19 181 2 14 15 18 15 33 1 14 -13 49 -16 200
-16 185 0 226 6 251 37 10 13 15 14 18 4 10 -28 62 -42 150 -42 137 0 163 7
179 46 19 46 18 128 -1 144 -11 9 -13 16 -5 24 5 5 10 43 10 83 0 63 -3 74
-21 84 l-21 11 23 12 c50 24 32 132 -32 195 -48 46 -85 55 -203 49 -61 -3 -79
-8 -99 -26 -20 -19 -25 -20 -30 -8 -9 23 -85 39 -165 34 -57 -4 -78 -10 -96
-27 l-24 -23 -32 24 c-30 22 -40 23 -182 23 l-150 0 -22 -27 -22 -28 -27 28
c-27 26 -31 27 -141 27 -94 0 -117 -3 -133 -17 -18 -17 -20 -17 -36 0 -14 14
-36 17 -108 17 -78 0 -93 -3 -105 -19 -13 -19 -14 -19 -35 0 -17 16 -35 19
-103 17 -44 0 -99 -1 -121 0 -179 2 -183 2 -202 -15 -18 -17 -20 -17 -36 0
-13 13 -35 17 -87 17 -59 0 -72 -3 -94 -24 l-26 -25 -15 21 c-31 45 -150 39
-183 -8 -14 -21 -14 -21 -44 8 -28 27 -33 28 -155 32 -140 4 -196 -7 -214 -42
-7 -12 -13 -24 -16 -26 -2 -3 -19 11 -39 30 l-35 34 -126 4 c-143 4 -193 -6
-213 -44 -17 -31 -25 -31 -55 1 -13 14 -41 30 -62 35 -63 14 -473 10 -508 -5z
m514 -17 c41 -14 51 -35 58 -119 l6 -68 -44 -12 c-24 -6 -79 -23 -122 -37 -58
-18 -82 -22 -90 -14 -6 6 -28 11 -49 11 -31 0 -39 -4 -44 -24 -11 -47 -2 -61
44 -64 37 -3 44 0 49 17 6 23 63 32 183 28 l75 -2 -1 -118 c0 -150 1 -149
-129 -151 -70 -1 -104 3 -118 13 -16 12 -30 12 -81 2 -34 -6 -103 -12 -155
-14 -136 -2 -131 -13 -131 269 0 233 5 263 44 282 29 15 464 15 505 1z m460
-17 c27 -26 28 -31 33 -162 3 -74 3 -182 -1 -238 -8 -141 -9 -142 -183 -142
-130 0 -160 6 -185 39 -16 20 -18 409 -3 463 17 61 37 68 183 68 127 0 129 0
156 -28z m433 0 c22 -22 23 -28 26 -257 l3 -235 -26 -26 c-25 -25 -26 -25
-171 -22 -199 4 -186 -17 -182 284 3 232 3 232 28 259 l25 26 137 -3 c127 -3
139 -5 160 -26z m214 13 c7 -2 22 -33 34 -69 29 -89 50 -89 50 -1 0 51 4 66
18 74 22 11 121 6 135 -8 7 -7 11 -109 11 -271 1 -293 5 -280 -75 -280 -55 0
-72 15 -97 91 -27 77 -48 73 -44 -8 4 -73 -6 -83 -87 -83 -87 0 -84 -15 -81
330 1 190 2 206 20 222 18 15 72 16 116 3z m463 6 c12 -8 15 -60 19 -280 l5
-270 -25 -6 c-13 -3 -51 -5 -83 -3 -85 4 -85 3 -85 293 0 132 4 245 8 251 4 6
14 14 22 17 24 9 124 7 139 -2z m230 -5 c6 -4 11 -35 11 -75 0 -37 3 -116 7
-174 5 -92 8 -107 23 -107 26 0 30 28 30 201 0 134 2 158 16 163 24 9 137 7
153 -3 17 -11 10 -151 -20 -346 -10 -72 -19 -144 -19 -162 0 -22 -6 -36 -19
-43 -30 -16 -276 -13 -293 3 -19 19 -73 524 -59 541 12 14 148 15 170 2z m541
1 c29 -14 53 -75 48 -122 -3 -29 -6 -30 -65 -39 -51 -7 -63 -12 -63 -27 0 -15
10 -19 58 -21 l57 -3 3 -66 3 -66 -32 -7 c-17 -3 -44 -6 -60 -6 -19 0 -29 -5
-29 -15 0 -10 16 -15 63 -17 l62 -3 0 -67 c0 -37 -5 -72 -11 -78 -17 -17 -249
-19 -266 -2 -17 17 -27 188 -20 367 5 128 7 141 28 162 21 21 33 23 111 23 51
0 99 -6 113 -13z m410 -2 c29 -9 40 -52 40 -156 0 -86 -3 -104 -21 -128 -19
-26 -20 -31 -6 -52 19 -29 49 -182 41 -204 -5 -11 -22 -15 -73 -15 -36 0 -71
4 -77 8 -6 4 -14 26 -18 49 -8 54 -23 93 -35 93 -6 0 -11 -32 -13 -72 l-3 -72
-72 1 c-40 1 -78 5 -84 9 -16 9 -6 492 10 522 7 14 24 22 49 25 47 5 240 -1
262 -8z m308 -1 c20 -14 22 -24 22 -100 0 -83 0 -84 -25 -84 -14 0 -25 -3 -25
-7 0 -5 11 -44 25 -88 32 -102 34 -211 6 -246 -17 -22 -27 -24 -108 -25 -123
-1 -123 -1 -123 102 0 80 1 85 24 94 l24 9 -24 88 c-15 55 -24 115 -24 160 0
65 2 73 26 92 22 17 41 21 103 21 53 0 83 -5 99 -16z m328 -7 c23 -20 28 -34
32 -84 l4 -60 -66 -8 c-55 -5 -67 -10 -64 -23 2 -13 17 -18 58 -22 51 -5 55
-7 63 -37 5 -17 7 -47 3 -66 -7 -38 -23 -47 -88 -47 -27 0 -38 -4 -38 -15 0
-10 16 -15 63 -17 l62 -3 3 -60 c4 -93 0 -96 -145 -98 -89 -1 -126 2 -135 11
-17 17 -27 216 -18 386 8 164 10 166 146 166 83 0 96 -2 120 -23z"/>
<path d="M867 433 c-4 -3 -7 -44 -7 -90 0 -82 1 -84 23 -81 20 3 22 9 25 82 2
57 -1 82 -10 87 -16 11 -23 11 -31 2z"/>
<path d="M1291 426 c-7 -9 -11 -42 -9 -88 3 -70 4 -73 28 -73 24 0 25 2 28 79
2 57 -1 82 -10 87 -18 12 -24 11 -37 -5z"/>
<path d="M3167 463 c-13 -12 -7 -71 7 -76 21 -8 36 13 36 50 0 25 -4 33 -18
33 -10 0 -22 -3 -25 -7z"/>
</g>
</svg>
